name Walk6.mot
datacolumns 19
datarows 25
range 1.27000000 1.39000000
endheader

                time	   L_ground_force_vx	   L_ground_force_vy	   L_ground_force_vz	   L_ground_force_px	   L_ground_force_py	   L_ground_force_pz	   R_ground_force_vx	   R_ground_force_vy	   R_ground_force_vz	   R_ground_force_px	   R_ground_force_py	   R_ground_force_pz	   L_ground_torque_x	   L_ground_torque_y	   L_ground_torque_z	   R_ground_torque_x	   R_ground_torque_y	   R_ground_torque_z	
          1.27000000	         -0.00000000	         -0.00000000	          0.00000000	         -0.00000000	          0.00000000	         -0.00000000	         -4.44997698	          0.80658131	         -1.15914054	         -0.06295282	          0.00000000	          0.07987916	          0.00000000	          0.00000000	          0.00000000	          0.00000000	          0.00470108	          0.00000000	
          1.27500000	         -0.00000000	         -0.00000000	          0.00000000	         -0.00000000	          0.00000000	         -0.00000000	        -29.00550444	         62.41591650	         -1.49818329	         -0.19741186	          0.00000000	          0.24430150	          0.00000000	          0.00000000	          0.00000000	          0.00000000	          0.09925432	          0.00000000	
          1.28000000	         -0.00000000	          0.00000000	          0.00000000	          0.00000000	          0.00000000	          0.00000000	        -59.31702959	        193.68593024	          4.94783993	         -0.26645330	          0.00000000	          0.32334852	          0.00000000	          0.00000000	          0.00000000	          0.00000000	          0.28412459	          0.00000000	
          1.28500000	          0.00000000	          0.00000000	         -0.00000000	          0.00000000	          0.00000000	          0.00000000	        -69.02528959	        318.42440563	         20.57174999	         -0.27153195	          0.00000000	          0.32709179	          0.00000000	         -0.00000000	          0.00000000	          0.00000000	          0.41521592	          0.00000000	
          1.29000000	          0.00000000	          0.00000000	         -0.00000000	         -0.00000000	          0.00000000	         -0.00000000	        -60.35984939	        377.91457774	         36.35145215	         -0.26386036	          0.00000000	          0.31915801	          0.00000000	         -0.00000000	          0.00000000	          0.00000000	          0.32855205	          0.00000000	
          1.29500000	          0.00000000	         -0.00000000	          0.00000000	         -0.00000000	          0.00000000	         -0.00000000	        -50.81642777	        415.82720146	         44.85394663	         -0.25954806	          0.00000000	          0.31626541	          0.00000000	         -0.00000000	          0.00000000	          0.00000000	          0.08036429	          0.00000000	
          1.30000000	         -0.00000000	         -0.00000000	          0.00000000	         -0.00000000	          0.00000000	         -0.00000000	        -51.08925908	        471.06646082	         45.42430688	         -0.25714931	          0.00000000	          0.31687413	          0.00000000	          0.00000000	          0.00000000	          0.00000000	         -0.14876420	          0.00000000	
          1.30500000	         -0.00000000	         -0.00000000	          0.00000000	          0.00000000	          0.00000000	          0.00000000	        -66.06071994	        522.29270249	         39.58609136	         -0.25386960	          0.00000000	          0.31834440	          0.00000000	          0.00000000	          0.00000000	          0.00000000	         -0.22592235	          0.00000000	
          1.31000000	          0.00000000	          0.00000000	         -0.00000000	          0.00000000	          0.00000000	          0.00000000	        -92.24569946	        546.64958944	         29.14976521	         -0.24862236	          0.00000000	          0.31957073	          0.00000000	         -0.00000000	          0.00000000	          0.00000000	          0.14246304	          0.00000000	
          1.31500000	          0.00000000	          0.00000000	         -0.00000000	          0.00000000	          0.00000000	          0.00000000	       -117.84656921	        557.09001605	         15.25249778	         -0.24177218	          0.00000000	          0.32106732	          0.00000000	         -0.00000000	          0.00000000	          0.00000000	          1.00713775	          0.00000000	
          1.32000000	          0.00000000	          0.00000000	         -0.00000000	         -0.00000000	          0.00000000	         -0.00000000	       -134.47068393	        577.97289910	         -2.26795228	         -0.23456110	          0.00000000	          0.32281377	          0.00000000	         -0.00000000	          0.00000000	          0.00000000	          2.09225314	          0.00000000	
          1.32500000	         -0.00000000	         -0.00000000	          0.00000000	         -0.00000000	          0.00000000	         -0.00000000	       -143.35879369	        608.68717011	        -20.56203608	         -0.22852422	          0.00000000	          0.32420863	          0.00000000	          0.00000000	          0.00000000	          0.00000000	          2.83187768	          0.00000000	
          1.33000000	         -0.00000000	         -0.00000000	          0.00000000	         -0.00000000	          0.00000000	         -0.00000000	       -149.25072845	        630.74844356	        -32.81529475	         -0.22410519	          0.00000000	          0.32522858	          0.00000000	          0.00000000	          0.00000000	          0.00000000	          2.92490840	          0.00000000	
          1.33500000	         -0.00000000	         -0.00000000	          0.00000000	          0.00000000	          0.00000000	          0.00000000	       -154.59952564	        641.37875813	        -37.36934413	         -0.22052137	          0.00000000	          0.32551091	          0.00000000	          0.00000000	          0.00000000	          0.00000000	          2.55030621	          0.00000000	
          1.34000000	          0.00000000	          0.00000000	         -0.00000000	          0.00000000	          0.00000000	          0.00000000	       -160.39837727	        654.22574112	        -38.85525164	         -0.21710956	          0.00000000	          0.32523221	          0.00000000	         -0.00000000	          0.00000000	          0.00000000	          2.05144334	          0.00000000	
          1.34500000	          0.00000000	          0.00000000	         -0.00000000	          0.00000000	          0.00000000	          0.00000000	       -166.42710607	        675.97664096	        -40.71482474	         -0.21415546	          0.00000000	          0.32511004	          0.00000000	         -0.00000000	          0.00000000	          0.00000000	          1.71408695	          0.00000000	
          1.35000000	          0.00000000	         -0.00000000	         -0.00000000	         -0.00000000	          0.00000000	         -0.00000000	       -170.72864903	        701.31481643	        -43.00403973	         -0.21186434	          0.00000000	          0.32525200	          0.00000000	         -0.00000000	          0.00000000	          0.00000000	          1.65788393	          0.00000000	
          1.35500000	         -0.00000000	         -0.00000000	          0.00000000	         -0.00000000	          0.00000000	         -0.00000000	       -172.29337914	        726.79482849	        -44.86699886	         -0.21029396	          0.00000000	          0.32542501	          0.00000000	          0.00000000	          0.00000000	          0.00000000	          1.77205082	          0.00000000	
          1.36000000	         -0.00000000	         -0.00000000	          0.00000000	          0.00000000	          0.00000000	          0.00000000	       -171.31155861	        756.03350183	        -45.06085082	         -0.20942244	          0.00000000	          0.32521278	          0.00000000	          0.00000000	          0.00000000	          0.00000000	          1.83477157	          0.00000000	
          1.36500000	          0.00000000	          0.00000000	         -0.00000000	          0.00000000	          0.00000000	          0.00000000	       -167.74649175	        789.75230463	        -42.02114603	         -0.20907580	          0.00000000	          0.32462689	          0.00000000	          0.00000000	          0.00000000	          0.00000000	          1.69866400	          0.00000000	
          1.37000000	          0.00000000	          0.00000000	         -0.00000000	          0.00000000	          0.00000000	          0.00000000	       -162.08698610	        823.01343916	        -35.76661205	         -0.20901996	          0.00000000	          0.32388755	          0.00000000	         -0.00000000	          0.00000000	          0.00000000	          1.41619932	          0.00000000	
          1.37500000	          0.00000000	          0.00000000	         -0.00000000	         -0.00000000	          0.00000000	         -0.00000000	       -155.69308942	        850.87744928	        -28.28859923	         -0.20884143	          0.00000000	          0.32318879	          0.00000000	         -0.00000000	          0.00000000	          0.00000000	          1.18080269	          0.00000000	
          1.38000000	         -0.00000000	         -0.00000000	          0.00000000	         -0.00000000	          0.00000000	         -0.00000000	       -149.68974176	        870.67148435	        -21.75906022	         -0.20844125	          0.00000000	          0.32272039	          0.00000000	          0.00000000	          0.00000000	          0.00000000	          1.06881375	          0.00000000	
          1.38500000	         -0.00000000	         -0.00000000	          0.00000000	         -0.00000000	          0.00000000	         -0.00000000	       -144.38593500	        883.01963885	        -16.94494510	         -0.20788741	          0.00000000	          0.32231145	          0.00000000	          0.00000000	          0.00000000	          0.00000000	          0.98646795	          0.00000000	
          1.39000000	         -0.00000000	         -0.00000000	          0.00000000	          0.00000000	          0.00000000	          0.00000000	       -139.34840347	        889.82521675	        -13.59442078	         -0.20716381	          0.00000000	          0.32193691	          0.00000000	          0.00000000	          0.00000000	          0.00000000	          0.84448045	          0.00000000	
